<?xml version="1.0" standalone="no"?>
<!DOCTYPE svg PUBLIC "-//W3C//DTD SVG 20010904//EN"
 "http://www.w3.org/TR/2001/REC-SVG-20010904/DTD/svg10.dtd">
<svg version="1.0" xmlns="http://www.w3.org/2000/svg"
 width="120.000000pt" height="120.000000pt" viewBox="0 0 120.000000 120.000000"
 preserveAspectRatio="xMidYMid meet">
<metadata>
Created by potrace 1.11, written by Peter Selinger 2001-2013
</metadata>
<g transform="translate(0.000000,120.000000) scale(0.100000,-0.100000)"
fill="#000000" stroke="none">
<path d="M484 1133 c-29 -31 -28 -34 10 -231 14 -72 26 -136 26 -141 0 -6 -12
-4 -26 4 -45 23 -112 -8 -115 -54 -1 -9 0 -27 1 -40 l2 -24 -29 20 c-56 39
-123 8 -125 -58 -1 -42 10 -202 16 -250 9 -63 44 -160 72 -200 23 -34 124
-109 124 -93 0 4 6 2 13 -4 7 -6 40 -15 73 -19 72 -9 68 -9 129 1 139 22 262
129 291 255 29 120 12 203 -50 243 -40 26 -40 19 -5 166 11 48 22 96 25 107 2
11 11 49 20 85 9 36 18 74 20 85 2 11 7 36 11 55 12 49 6 76 -22 94 -73 48
-126 7 -149 -114 -13 -67 -37 -174 -41 -181 -3 -3 -7 -24 -11 -45 -3 -20 -10
-49 -16 -63 -5 -14 -9 -27 -9 -28 1 -2 1 -13 1 -25 0 -31 -18 -11 -24 27 -3
17 -8 46 -11 65 -3 19 -8 42 -10 50 -2 8 -7 31 -10 50 -3 19 -8 46 -10 60 -8
40 -14 71 -26 135 -12 69 -36 95 -86 95 -24 0 -41 -8 -59 -27z"/>
</g>
</svg>
